<?xml version="1.0" encoding="UTF-8" standalone="no"?>
<svg
   height="24px"
   viewBox="0 -960 960 960"
   width="24px"
   fill="#e3e3e3"
   version="1.1"
   id="svg1"
   sodipodi:docname="sword.svg"
   inkscape:version="1.4.2 (ebf0e940d0, 2025-05-08)"
   xmlns:inkscape="http://www.inkscape.org/namespaces/inkscape"
   xmlns:sodipodi="http://sodipodi.sourceforge.net/DTD/sodipodi-0.dtd"
   xmlns="http://www.w3.org/2000/svg"
   xmlns:svg="http://www.w3.org/2000/svg">
  <defs
     id="defs1" />
  <sodipodi:namedview
     id="namedview1"
     pagecolor="#ffffff"
     bordercolor="#000000"
     borderopacity="0.25"
     inkscape:showpageshadow="2"
     inkscape:pageopacity="0.0"
     inkscape:pagecheckerboard="0"
     inkscape:deskcolor="#d1d1d1"
     inkscape:zoom="34.958333"
     inkscape:cx="11.985697"
     inkscape:cy="12"
     inkscape:window-width="1920"
     inkscape:window-height="1050"
     inkscape:window-x="2560"
     inkscape:window-y="360"
     inkscape:window-maximized="1"
     inkscape:current-layer="svg1" />
  <path
     d="m 880,-724 -454,454 5,4 c 15.33333,15.33333 23,34.33333 23,57 0,22.66667 -7.66667,41.66667 -23,57 l -28,28 -88,-88 -117,116 c -8,8 -17.33333,12 -28,12 -10.66667,0 -20,-4 -28,-12 l -50,-50 c -8,-8 -12,-17.33333 -12,-28 0,-10.66667 4,-20 12,-28 l 116,-117 -88,-88 28,-28 c 15.33333,-15.33333 34.33333,-23 57,-23 22.66667,0 41.66667,7.66667 57,23 l 4,5 454,-454 h 160 z m -510,397 430,-430 v -47 h -47 l -430,430 z m 0,0 -24,-23 -23,-24 23,24 z"
     id="path1"
     style="stroke-width:0;stroke-dasharray:none"
     sodipodi:nodetypes="cccsscccsssscccsscccccccccccccccc" />
</svg>
